<svg width="30" height="30" viewBox="0 0 30 30" fill="none" xmlns="http://www.w3.org/2000/svg">
<rect width="30" height="30" rx="15" fill="#4C3F91"/>
<path d="M18.7617 18.3867H21.9844C21.8984 19.5273 21.582 20.5391 21.0352 21.4219C20.4883 22.2969 19.7266 22.9844 18.75 23.4844C17.7734 23.9844 16.5898 24.2344 15.1992 24.2344C14.1289 24.2344 13.1641 24.0469 12.3047 23.6719C11.4531 23.2891 10.7227 22.7461 10.1133 22.043C9.51172 21.332 9.05078 20.4805 8.73047 19.4883C8.41016 18.4883 8.25 17.3672 8.25 16.125V14.8242C8.25 13.582 8.41406 12.4609 8.74219 11.4609C9.07031 10.4609 9.53906 9.60938 10.1484 8.90625C10.7656 8.19531 11.5039 7.64844 12.3633 7.26562C13.2305 6.88281 14.1992 6.69141 15.2695 6.69141C16.6602 6.69141 17.8359 6.94922 18.7969 7.46484C19.7578 7.97266 20.5039 8.67188 21.0352 9.5625C21.5664 10.4531 21.8867 11.4766 21.9961 12.6328H18.7734C18.7109 11.9141 18.5547 11.3047 18.3047 10.8047C18.0625 10.3047 17.6953 9.92578 17.2031 9.66797C16.7188 9.40234 16.0742 9.26953 15.2695 9.26953C14.6445 9.26953 14.0938 9.38672 13.6172 9.62109C13.1484 9.85547 12.7578 10.207 12.4453 10.6758C12.1328 11.1367 11.8984 11.7148 11.7422 12.4102C11.5859 13.0977 11.5078 13.8945 11.5078 14.8008V16.125C11.5078 16.9922 11.5781 17.7695 11.7188 18.457C11.8594 19.1445 12.0781 19.7266 12.375 20.2031C12.6719 20.6797 13.0547 21.043 13.5234 21.293C13.9922 21.543 14.5508 21.668 15.1992 21.668C15.9883 21.668 16.6289 21.543 17.1211 21.293C17.6211 21.043 18 20.6758 18.2578 20.1914C18.5234 19.707 18.6914 19.1055 18.7617 18.3867Z" fill="white"/>
</svg>
