<svg width="192" height="192" viewBox="0 0 192 192" fill="none" xmlns="http://www.w3.org/2000/svg">
<rect width="192" height="192" rx="96" fill="#4C3F91"/>
<path d="M121.578 113.578H143.062C142.49 121.182 140.38 127.927 136.734 133.812C133.089 139.646 128.01 144.229 121.5 147.562C114.99 150.896 107.099 152.562 97.8281 152.562C90.6927 152.562 84.2604 151.312 78.5312 148.812C72.8542 146.26 67.9844 142.641 63.9219 137.953C59.9115 133.214 56.8385 127.536 54.7031 120.922C52.5677 114.255 51.5 106.781 51.5 98.5V89.8281C51.5 81.5469 52.5938 74.0729 54.7812 67.4062C56.9688 60.7396 60.0938 55.0625 64.1562 50.375C68.2708 45.6354 73.1927 41.9896 78.9219 39.4375C84.7031 36.8854 91.1615 35.6094 98.2969 35.6094C107.568 35.6094 115.406 37.3281 121.812 40.7656C128.219 44.151 133.193 48.8125 136.734 54.75C140.276 60.6875 142.411 67.5104 143.141 75.2188H121.656C121.24 70.4271 120.198 66.3646 118.531 63.0312C116.917 59.6979 114.469 57.1719 111.188 55.4531C107.958 53.6823 103.661 52.7969 98.2969 52.7969C94.1302 52.7969 90.4583 53.5781 87.2812 55.1406C84.1562 56.7031 81.5521 59.0469 79.4688 62.1719C77.3854 65.2448 75.8229 69.099 74.7812 73.7344C73.7396 78.3177 73.2188 83.6302 73.2188 89.6719V98.5C73.2188 104.281 73.6875 109.464 74.625 114.047C75.5625 118.63 77.0208 122.51 79 125.688C80.9792 128.865 83.5312 131.286 86.6562 132.953C89.7812 134.62 93.5052 135.453 97.8281 135.453C103.089 135.453 107.359 134.62 110.641 132.953C113.974 131.286 116.5 128.839 118.219 125.609C119.99 122.38 121.109 118.37 121.578 113.578Z" fill="white"/>
</svg>
